<?xml version="1.0" encoding="utf-8"?>
<!-- Generator: Adobe Illustrator 22.1.0, SVG Export Plug-In . SVG Version: 6.00 Build 0)  -->
<svg version="1.1" id="illustration" xmlns="http://www.w3.org/2000/svg" xmlns:xlink="http://www.w3.org/1999/xlink" x="0px"
	 y="0px" viewBox="0 0 745 738" style="enable-background:new 0 0 745 738;" xml:space="preserve">
<style type="text/css">
	.st0{opacity:7.000000e-02;fill:url(#SVGID_1_);enable-background:new    ;}
	.st1{opacity:0.4;fill:url(#SVGID_2_);enable-background:new    ;}
	.st2{opacity:0.2;fill:url(#SVGID_3_);enable-background:new    ;}
	.st3{opacity:0.25;fill:url(#SVGID_4_);enable-background:new    ;}
	.st4{opacity:0.15;fill:#FFFFFF;enable-background:new    ;}
	.st5{fill:#F2C94C;}
	.st6{opacity:0.25;fill:url(#SVGID_5_);enable-background:new    ;}
	.st7{fill:#F2994A;}
	.st8{opacity:0.25;fill:url(#SVGID_6_);enable-background:new    ;}
</style>
<linearGradient id="SVGID_1_" gradientUnits="userSpaceOnUse" x1="682.8566" y1="574.0637" x2="393.8105" y2="412.2555" gradientTransform="matrix(1 0 0 -1 0 688)">
	<stop  offset="0" style="stop-color:#FFFFFF"/>
	<stop  offset="1" style="stop-color:#FFFFFF;stop-opacity:0"/>
</linearGradient>
<path class="st0" d="M517.6,460.6C179.3,25,424-132.3,517.7,122.9C611.4-24.2,856.1,415.7,517.6,460.6z"/>
<linearGradient id="SVGID_2_" gradientUnits="userSpaceOnUse" x1="650.8557" y1="534.063" x2="361.8097" y2="372.2551" gradientTransform="matrix(1 0 0 -1 0 688)">
	<stop  offset="0" style="stop-color:#FFFFFF"/>
	<stop  offset="1" style="stop-color:#FFFFFF;stop-opacity:0"/>
</linearGradient>
<path class="st1" d="M485.6,500.6C147.3,65,392-92.3,485.7,162.9C579.4,15.8,824.1,455.7,485.6,500.6z"/>
<linearGradient id="SVGID_3_" gradientUnits="userSpaceOnUse" x1="118.2191" y1="339.6462" x2="65.8617" y2="298.3262" gradientTransform="matrix(1 0 0 -1 0 688)">
	<stop  offset="0" style="stop-color:#FFFFFF"/>
	<stop  offset="1" style="stop-color:#FFFFFF;stop-opacity:0"/>
</linearGradient>
<path class="st2" d="M97.3,309.4c6,3.4,10.8,11.8,10.8,18.7v30.5l20.2,11.6c6,3.4,10.8,11.8,10.8,18.7c0,6.9-4.8,9.7-10.8,6.3
	l-20.2-11.6v30.5c0,6.9-4.8,9.7-10.8,6.3c-6-3.4-10.8-11.8-10.8-18.7v-30.5l-20.2-11.6c-6-3.4-10.8-11.8-10.8-18.7
	c0-6.9,4.8-9.7,10.8-6.3l20.2,11.6v-30.5C86.5,308.7,91.3,305.9,97.3,309.4z"/>
<linearGradient id="SVGID_4_" gradientUnits="userSpaceOnUse" x1="386.6425" y1="380.0266" x2="220.7326" y2="92.5865" gradientTransform="matrix(1 0 0 -1 0 688)">
	<stop  offset="0" style="stop-color:#FFFFFF"/>
	<stop  offset="1" style="stop-color:#FFFFFF;stop-opacity:0"/>
</linearGradient>
<path class="st3" d="M179.7,277.5l186.9,107.9v346.3l-186.9-108L179.7,277.5L179.7,277.5z"/>
<path class="st4" d="M198.1,483l150.1,86.6v13.6l-150.1-86.6V483z"/>
<path class="st4" d="M208.6,515.3l129.1,74.5v13.6l-129.1-74.5V515.3z"/>
<path class="st5" d="M263.1,580.6l-130-75.1v38.7l130,75.1V580.6z"/>
<path class="st5" d="M294.4,413.6c0,16.8-9.7,24.7-21.7,17.7s-21.7-26.2-21.7-43s9.7-24.7,21.7-17.7S294.4,396.8,294.4,413.6z"/>
<path class="st5" d="M272.7,444.8c-19.3-11.3-35.2-0.7-38.1,23.6c-0.5,4.2,2.7,9.8,6.6,12l62.9,36.8c3.9,2.3,7.1,0.4,6.6-4.3
	C308,485.2,292,456,272.7,444.8z"/>
<linearGradient id="SVGID_5_" gradientUnits="userSpaceOnUse" x1="561.7264" y1="245.0585" x2="562.1664" y2="-12.9534" gradientTransform="matrix(1 0 0 -1 0 688)">
	<stop  offset="0" style="stop-color:#FFFFFF"/>
	<stop  offset="1" style="stop-color:#FFFFFF;stop-opacity:0"/>
</linearGradient>
<path class="st6" d="M710.8,582.4L413.1,410.6v155.1l297.7,171.8L710.8,582.4z"/>
<path class="st4" d="M509.8,521.5l85.7,49.5v13.6l-85.7-49.5V521.5z"/>
<path class="st4" d="M509.8,547.6l174.9,100.9v13.6L509.8,561.2V547.6z"/>
<path class="st7" d="M744.2,630.8l-130-75.1v38.7l130,75.1V630.8z"/>
<path class="st7" d="M483.6,527.1c0,17.2-10.1,25.4-22.5,18.2s-22.5-27-22.5-44.2s10.1-25.4,22.5-18.2
	C473.5,490.1,483.6,509.9,483.6,527.1z"/>
<linearGradient id="SVGID_6_" gradientUnits="userSpaceOnUse" x1="148.7268" y1="615.0586" x2="149.1661" y2="357.0464" gradientTransform="matrix(1 0 0 -1 0 688)">
	<stop  offset="0" style="stop-color:#FFFFFF"/>
	<stop  offset="1" style="stop-color:#FFFFFF;stop-opacity:0"/>
</linearGradient>
<path class="st8" d="M297.8,212.4L0.1,40.6v155.1l297.7,171.8L297.8,212.4z"/>
<path class="st4" d="M96.9,152.7l146.3,84.5v13.6L96.9,166.3V152.7z"/>
<path class="st4" d="M96.9,178.8l174.9,100.9v13.6L96.9,192.4V178.8z"/>
<path class="st7" d="M56.4,122c0-1.7-1.2-3.7-2.6-4.5l-11.5-6.6c-1.4-0.8-2.6-0.2-2.6,1.5v11.4c0,2.3-2.5,3.8-4.5,2.6l-7.1-4.1
	c-1.4-0.8-2.6-0.2-2.6,1.5v17.1c0,1.7,1.2,3.7,2.6,4.5l10.1,5.8c0.9,0.5,1.5,1.5,1.5,2.6v14.9c0,1.7,1.2,3.7,2.6,4.5l11.5,6.6
	c1.4,0.8,2.6,0.2,2.6-1.5v-11.4c0-2.3,2.5-3.8,4.5-2.6l7.1,4.1c1.4,0.8,2.6,0.2,2.6-1.5v-17.1c0-1.7-1.2-3.7-2.6-4.5l-10.1-5.8
	c-0.9-0.5-1.5-1.5-1.5-2.6V122z"/>
</svg>
