<svg version="1.2" xmlns="http://www.w3.org/2000/svg" viewBox="0 0 1000 419" width="1000" height="419"><style>.a{fill:#3aafa9}</style><path fill-rule="evenodd" class="a" d="m41.4 305q1.3 0.3 5.9 9.2 4.6 9 11.2 23.2l3.8 8q2.6-2.7 4.7-6.4 2.2-3.7 5.4-9.9 3.8-7.1 5.2-9.2 5.8-8.7 12.5-18.6 0.9-1.3 3-1.8 0.4-0.1 1.2-0.1 2.9 0 6.5 2.4 3.5 2.4 4.6 4.9 0.3 0.5 0.3 1.8 0 1.2-0.2 1.8-0.2 1.1-0.5 2.7-0.3 1.7-0.5 3.8-3.9 29.4-5.6 44-0.5 3.4-0.5 7.6l-0.2 3.9q-0.1 1.2-0.1 2.7 0 1.6-0.4 2.2-0.3 0.6-1.3 0.6-0.7 0-2.2-0.4-3.8-0.8-5.9-3-2-2.3-2.3-6.2-0.1-2.1-0.1-6.4 0-4.4 0.3-13.6l0.1-6.6 0.2-9.5q-1.1 1-5.5 7.5-4.3 6.6-8.6 13.7-4.2 7.1-5.5 10.9-1.2 3-2.3 4.5-1.2 1.4-2.7 1.4-1.5 0-3.8-1.3-6.5-4-7.9-11-2.3-10.7-5.7-22.2-0.6-2.2-2.3-5.9-1.8-3.7-2.2-4.7l-1.6-3.1q-17.6 23.3-23.8 42.8-1.2 4.1-2.3 5.8-1.1 1.8-2.6 1.8-2.2 0-6.5-4.1-3.2-2.9-3.2-6.5 0-1.9 0.7-3.9 5.1-14.9 15.1-28.2l3.7-5q7.6-9.9 11.4-15.6 2.9-4.2 7.7-4.2 0.9 0 2.8 0.2zm74.1 109.1q0.9-0.2 2.2-0.6 1.3-0.5 2.3-0.6 8.6-0.2 12.7-3.6 4-3.4 5.1-11.9 1.1-8.5 2.2-25.6l0.4-7.7q0.2-2.8-1-4.3-1.1-1.5-4.1-1.8-6.5-0.8-11.3-5.1-4.7-4.3-6.5-10.9-0.6-2.1-1.4-4.9-1.4-5.2-2-7.9v-0.2q0-0.8 0.5-1.7 0.4-0.9 0.9-1.2 2-1.3 4.5-1.3 3.4 0 6 2.3 2.6 2.3 3 5.8 0.6 5.4 2.1 11.8 0.6 2.5 2.2 2.5 1.4 0 2.3-1.3 3.2-3.9 4.8-7.7 2.1-4.5 6.1-4.5 1 0 1.5 0.1 6.3 1.2 6 7.7l-0.3 11.2q-0.5 14.9-1.1 22.2l-0.4 4.8q-0.7 9.9-1.4 15.4-0.6 5.4-2.1 11-1.8 6.9-6.6 10.4-4.8 3.4-11.3 3.4-5.2 0-10.3-2-1.1-0.5-2.6-1.3-1.4-0.8-2.1-1.3zm105.8-87.4q-3.4 6.5-4.5 10.2-1 3.7-1.7 8.9 1.2 0 4-0.1 2.7 0 3.6-0.1l6.8-1.5q2.6-0.6 4.5-1 1.9-0.4 7.1-1.3 2.3-0.3 4.9-0.4 2.7-0.2 3.5-0.2 2.9 0 4.3-0.1 2.1 0 2.9 0.7 3.5 3 3.5 5.2 0 1.5-1.1 2.1-1 0.6-3.3 1.3l-11.2 2.4-23.4 6.4q-0.6 0.1-1.1 0.4-0.6 0.3-1.2 0.4-3.8 0.8-5.1 1.4-1.2 0.5-1.5 1.8-0.3 1.4-0.3 5.2v4.8q0 3.3-0.3 5-0.7 6-4.4 6-2.1 0-4.7-1.6-3-1.8-4.5-4-1.5-2.2-1.5-5.2 0-1.1 0.1-1.7 0.9-8.5 1.3-12.5 0.4-3.5 1-8.9 0.6-5.3 1.5-12.4 1.6-11.2 7.9-19.8 6.3-8.5 16.7-15.6 10.2-7.1 20.4-9 2.1-0.5 4.7-0.5 8 0 13.6 6 2.3 2.3 2.3 4 0 0.7-0.6 1.9-1.5 2.5-4.3 2.5-1 0-2.1-0.3-0.6-0.3-1.5-0.5-0.9-0.2-1.4-0.5-2-1.4-4.6-1.4-3.7-1.1-8.1 1.3-4.5 2.4-12.2 8.4-4.1 3-7.1 6.9zm79.3 47.4q-1-0.5-2.1-0.5-1.1 0-1.9 0.5-0.8 0.6-1.7 1.6-1.5 1.5-3 2.5-1.5 0.8-5.3 1.5-1.7 0.3-2.8 0.3-5.1 0-10.5-2.3-5.5-2.2-7.8-5.3-2.4-3.4-2.3-7.2 0.1-5.8 4.8-11.6 4.6-5.5 8.4-7.8 3.8-2.3 10.4-2.9 1.4 0 4.2-0.5 2.7-0.5 2.7-1.3 0-1.7-1.5-3.1-1.5-1.3-6.1-1.3-1.7 0-5.1 0.2-3.3 0.2-4.7 0.2-4.1 0-5.9-1.3-0.4-0.2-0.4-2.3 0-3.6 2.5-4.5 5.2-2 10.7-2.1 7 0 12.9 3.1 6 3 8.8 7.6 2.7 4.6 3.6 12.6 0.9 9.1 0.9 23 0 3.9-1.1 4.5-0.9 0.6-1.8 0.6-1 0-1.9-0.7-0.9-0.7-2-1.9-1.1-1.3-2-1.6zm-19-1.5q5.7-1.7 11.1-5.4 1.2-0.8 2.2-2.2 0.9-1.3 1.2-1.6 0.2-0.4 0.4-2.2 0.2-1.7 0.1-2.8-0.2-0.3-0.5-1.9-0.3-1.6-0.9-2.8-0.6-0.9-1.9-1.8-1.3-0.8-2.4-0.7-2.3 0.1-4.9 1.7-2.7 1.6-5 4.2-2.3 2.8-3.5 5.6-1.3 2.8-1.3 5.2 0.3 3.3 1.8 4.4 0.9 0.6 2.1 0.6 0.9 0 1.5-0.3zm100.9-23.8q-0.3-4.6-3.9-6.7-2.9 0.7-4.7 1.8-1.8 1.1-2.6 2.1-0.9 1-3 3.9-0.7 0.9-1.5 2.6-0.8 1.7-0.9 2.1-0.4 0.8-0.4 1.8 0 0.7 0.3 2.2 0.3 1.5 0.2 2.4-0.1 1.8 0.1 5.6l0.1 3.7q0 1.7-0.1 2.6-0.2 1.9-1.2 3.3-1 1.5-2.6 1.5-0.6 0-1.6-0.4-0.8-0.2-2.8-0.8-1.9-0.6-3-1.9-1.1-1.3-1.1-3.7 0-6.2-1.2-18.7-0.2-1.4-0.4-4.5-0.2-1.3-1.3-2-1-0.7-2.6-0.7-2.5 0-3.9 1.3-5.5 3.1-8 7.1-2.5 3.9-2.5 10.2l0.1 4.1q0 4-2.1 7.3-0.6 1.1-2.4 1.9-1.9 0.8-3.2 0.5-1.2-0.1-2.5-1.6-1.3-1.5-1.3-2.7-0.3-10.1-0.3-20.1 0-9 0.2-13.5 0.1-2.2 1.6-3.6 1.4-1.3 3.5-1.3 2.6 0 4.7 1.9 1.1 2.1 1.8 3 0.7 0.9 1.5 0.9 0.8 0 1.7-0.8 1-0.8 2.7-2.6 3.9-4.3 8.3-4.3 4.7 0 11.3 4.7 0.5 0.3 1.3 1 0.9 0.7 1.5 0.7 0.8 0 2.6-2 6.7-6.2 17.1-6.8 3.2-0.1 6.5 2.4 3.4 2.6 4.2 6.2 1.5 6.2 2.1 14.5 0.7 12.5 0.6 18.7-0.2 2.9-1.6 4.5-1.5 1.7-3.7 1.7-1.8 0-3.9-1.1-0.8-0.4-1.6-1.3-0.7-1-0.7-1.7l-0.7-12.8q-0.1-2-0.2-5.2-0.2-3.2-0.5-7.4zm36.2-24.7q-0.2 0.8-1.8 1.6-1.4 0.9-2.4 1.6l-3.4-1.8q-4.9-2.7-6.7-4.2-1-0.8-1-1.8 0-0.8 0.5-1.3 0.6-0.5 1.7-0.5 4.7 0 11.4 2.4 0.7 0.1 1.3 1.6 0.6 1.5 0.4 2.4zm-10.8 22.4q0.3-1.5 0.5-2.3 0.1-0.7 0.1-1.5 0-1.7 1-2.7 1-0.9 3.9-0.9 3.4 0 6 2.1 2.6 2.1 3.2 5.4 0.3 1.7 0.4 3.8 0.2 2 0.2 2.6l1.6 20.6q0.4 3.2-0.9 5-1.2 1.7-4.7 1.7-3 0-5.1-1.7-2.1-1.7-2.6-4.3l-3.1-25.5zm42.3 28.1q2.4-2.8 3.5-4.5 1.3-1.8 2.7-1.8 1.5 0 2.2 1.8 1.7 4.8 1.7 7.6 0 1.2-0.1 1.8-0.5 2.4-2.7 3.3-2.3 1-5.3 0.7-1 0-3.6 0-2.6 0-4.5-0.7-1.9-0.7-3.3-2.4-3.1-3.7-3.1-7.2 0-28.1-0.3-42.3l-0.1-21.2q0-4.2-0.8-7.7-0.2-0.6-0.2-1.4 0-4.5 6.1-4.5 3.9 0 6.7 2.6 2.7 2.6 2.4 6.8-0.3 6.4-1 19.1l-0.7 14.4q-0.9 20.5-1.3 30.7-0.1 1.2 0.1 2.7 0.3 1.4 0.4 1.8zm16.5 39.4q0.8-0.2 2.1-0.6 1.4-0.5 2.3-0.6 8.7-0.2 12.7-3.6 4.1-3.4 5.1-11.9 1.1-8.5 2.2-25.6l0.5-7.7q0.1-2.8-1-4.3-1.2-1.5-4.2-1.9-6.5-0.7-11.2-5-4.8-4.3-6.6-10.9-0.6-2.1-1.3-4.9-1.5-5.3-2.1-7.9v-0.2q0-0.8 0.5-1.7 0.5-0.9 1-1.2 1.9-1.3 4.4-1.3 3.4 0 6 2.3 2.7 2.3 3.1 5.8 0.6 5.4 2 11.8 0.6 2.5 2.3 2.5 1.3 0 2.3-1.3 3.1-3.9 4.8-7.7 2-4.5 6-4.5 1.1 0 1.6 0.1 6.2 1.2 6 7.7l-0.4 11.2q-0.5 14.9-1.1 22.2l-0.3 4.8q-0.7 9.9-1.4 15.4-0.7 5.4-2.1 11-1.8 6.9-6.6 10.4-4.8 3.4-11.3 3.4-5.2 0-10.4-2.1-1.1-0.4-2.5-1.2-1.5-0.8-2.2-1.3zm84.7-70.8q-0.1-0.9-0.1-2.8 0-4.7 1-9.1 0.9-4.5 2.7-9.8 1.9-4.9 6.9-9.8 5.1-5 11.3-8.2 6.3-3.1 11.3-3.1 5.2 0 10.1 3.7 5 3.8 6.3 8.6 0.2 1.5 0.2 2 0 1.8-1 2.7-1 0.9-2.7 0.9-1.3 0-2-0.1-0.4 0-1.1-0.5-3.5-1.9-6.8-1.9-6.1 0-12.1 6.3-10.2 10.7-10.2 25.5 0 5.3 1 10.3 1.2 5.5 4.3 8.1 3.1 2.6 8.3 2.6 1.8 0 3.9-0.4 7.6-1 14-4.6 6.4-3.7 14.1-9.8 1.8-1.5 6.3-6.1l2.5-2.5q1.5-1.5 2.6-2.2 1.2-0.7 2.2-0.7 1.5 0 3.8 1.6 2.5 1.8 2.5 4.6 0 1.9-1.3 3.6-0.5 0.8-2.6 3.9-2.2 3.1-4.2 5.5-2.1 2.4-4.1 4-11.1 9.8-23.1 13.2-5.3 1.4-10.6 1.4-9.8 0-17.3-4.9-7.5-5-11.7-13-4.2-8-4.4-16.6zm109.3 28.8q-3.7 2.3-8.6 2.3-5.3 0-10.1-2.7-4.9-2.7-7.8-7.7-2.9-5.1-2.4-11.6l0.6-2.9q0.7-4.3 1.2-6.3 1.1-4.5 4.3-6.3 3.3-1.8 8.7-2.9 3.5-0.7 6.9-0.7 10.6 0 17.8 7.1 3.8 3.8 3.8 9.4 0 5.4-3.9 11.6-4.6 7.1-10.5 10.7zm-10.1-32.7q-2 4.7-4.1 11.7l-1.2 3.6 0.8 0.4q0 0.8 0.1 2.5 0 1.8 0.4 3 1.3 3.7 3 4.6 0.7 0.3 2.1-0.4 1.4-0.7 2.5-1.7 1.7-1.4 5.4-6 2.8-3.1 2.8-7.4 0-3.8-2.1-6.8-2.1-3-5.9-4.1-0.3-0.1-1.3-0.1-2.3 0-2.5 0.7zm60.3 32.7q-3.8 2.3-8.6 2.3-5.3 0-10.1-2.7-4.9-2.7-7.8-7.7-2.9-5.1-2.4-11.6l0.6-2.9q0.7-4.3 1.2-6.3 1.1-4.5 4.3-6.3 3.3-1.8 8.7-2.9 3.5-0.7 6.8-0.7 10.6 0 17.9 7.1 3.8 3.8 3.8 9.4 0 5.4-4 11.6-4.5 7.1-10.4 10.7zm-10.1-32.7q-2 4.7-4.1 11.7l-1.2 3.6 0.8 0.4q0 0.8 0.1 2.5 0 1.8 0.4 3 1.3 3.7 3 4.6 0.7 0.3 2.1-0.4 1.4-0.7 2.5-1.7 1.7-1.4 5.4-6 2.8-3.1 2.8-7.4 0-3.8-2.1-6.8-2.2-3-5.9-4.1-0.4-0.1-1.3-0.1-2.3 0-2.5 0.7zm47.3-13.2q0 0.6-0.4 2.8-0.2 2.3-0.2 3.6 0 0.9 0.2 1.2l3.5-3.4q1.9-2.2 3.4-3.4 3.1-2.8 6.3-2.8 2.7 0 4 2 0.7 1.2 0.7 2.8 0 1.2-0.5 1.8-1.8 2.7-6.5 8.3-1.8 1.9-1.8 3.7 0 1.7 1.7 3.7 1.5 1.7 4.1 5.1 5.2 6.6 9.2 10.6 4.1 4.1 9.3 6.7 0.6 0.2 1 1.1 0.4 0.9 0.3 1.4-0.2 0.6-1 1.2-0.9 0.6-1.5 0.5-1.8-0.5-3-0.6-6.2-1.2-8.9-3-4.3-3-12.2-10.5-4.9-4.4-5-4.5l-2.1-2.1q-2.6-2.5-2.6-2.5-0.2 0.6-0.2 1.8 0 1.1 0.2 2.3 0.1 1.3 0 1.8-0.7 13.5-0.9 19.7-0.3 4-1.9 6-1.6 2.1-4.5 1.6-1-0.1-2.1-1-1.2-0.8-1.4-1.7-1.3-5.2-1.3-10.3 0-14.5 0.3-29l1.2-39.2q0.2-6.4 6.7-6.4 4.4 0 6.5 1.7 2 1.7 1.8 5.3l-1.2 12.3q-0.5 4.2-1.2 11.4zm56.9 3.3q0 2.2-0.6 6.2-0.5 4.6-0.6 7.3 1.4-0.6 3.3-2.7 1.1-1.2 2.2-2.1 5.3-3.7 10.1-3.7 5.1 0 10.7 4.2 8.6 6.3 8.6 14.7 0 6.6-5.6 13.9-7.9 10.7-22.3 12.9-0.8 0.1-2.2 0.1-2.3 0-7.6-0.9 0-1.2-0.4-2.7 0.9-0.3 2.3-1 1.4-0.7 2.4-0.8 3.8-0.3 8.4-3.9 4.6-3.5 8.1-8.2 3.5-4.7 4-8.2 0.1-0.5 0.2-1.3 0.2-0.9 0.2-2.1 0-1.2-0.4-2-1.9-4.5-4.5-5.9-0.7-0.4-2.5 0.8-1.8 1.1-2.9 2.4-7.9 8.7-9.4 19.9-0.4 4.3-4.9 4.2-3.6 0-6.6-3-3-2.9-3-6.5-0.1-18.2-0.1-54.4 0-3 1.7-4.1 1.7-1.2 5.1-1.9 1.5-0.4 3.3 0.6 1.8 1 3.1 2.5 1.3 1.6 1.3 3.2 0 7.1-1.1 17.6zm72.1 42.7q-3.7 2.3-8.5 2.3-5.3 0-10.2-2.7-4.9-2.7-7.8-7.7-2.9-5.1-2.4-11.6l0.6-2.9q0.7-4.3 1.2-6.3 1.1-4.5 4.4-6.3 3.2-1.8 8.6-2.9 3.5-0.7 6.9-0.7 10.6 0 17.8 7.1 3.8 3.8 3.8 9.4 0 5.4-3.9 11.6-4.6 7.1-10.5 10.7zm-10.1-32.7q-1.9 4.7-4.1 11.7l-1.2 3.6 0.8 0.4q0 0.8 0.1 2.5 0.1 1.8 0.4 3 1.3 3.7 3 4.6 0.7 0.3 2.1-0.4 1.4-0.7 2.5-1.7 1.7-1.4 5.4-6 2.8-3.1 2.8-7.5 0-3.7-2.1-6.7-2.1-3-5.9-4.1-0.3-0.1-1.3-0.1-2.3 0-2.5 0.7zm60.3 32.7q-3.7 2.3-8.6 2.3-5.3 0-10.1-2.7-4.9-2.7-7.8-7.7-2.9-5.1-2.4-11.6l0.6-2.9q0.7-4.3 1.2-6.3 1.1-4.5 4.3-6.3 3.3-1.8 8.7-2.9 3.5-0.7 6.9-0.7 10.6 0 17.8 7.1 3.8 3.8 3.8 9.4 0 5.4-3.9 11.6-4.6 7.1-10.5 10.7zm-10.1-32.7q-2 4.7-4.1 11.7l-1.2 3.6 0.8 0.4q0 0.8 0.1 2.5 0 1.8 0.4 3 1.3 3.7 3 4.6 0.7 0.3 2.1-0.4 1.4-0.7 2.5-1.7 1.7-1.4 5.4-6 2.8-3.1 2.8-7.5 0-3.7-2.1-6.7-2.1-3-5.9-4.1-0.3-0.1-1.3-0.1-2.3 0-2.5 0.7zm47.3-13.2q0 0.6-0.3 2.8-0.3 2.2-0.3 3.6 0 0.9 0.2 1.2l3.5-3.4q1.9-2.2 3.4-3.4 3.1-2.9 6.3-2.9 2.7 0 4 2.1 0.7 1.2 0.7 2.8 0 1.2-0.4 1.8-1.8 2.7-6.5 8.3-1.8 1.9-1.8 3.7 0 1.7 1.6 3.7 1.5 1.7 4.1 5.1 5.2 6.6 9.2 10.6 4.1 4 9.4 6.7 0.6 0.2 0.9 1.1 0.4 0.9 0.3 1.4-0.2 0.6-1 1.2-0.8 0.6-1.4 0.5-1.8-0.5-3-0.6-6.3-1.2-9-3-4.3-3-12.2-10.5-4.8-4.4-5-4.5l-2.1-2.1q-2.6-2.5-2.6-2.5-0.2 0.6-0.2 1.8 0 1.1 0.2 2.3 0.2 1.3 0 1.8-0.7 13.5-0.9 19.7-0.3 4-1.9 6-1.6 2.1-4.5 1.6-1-0.1-2.1-1-1.1-0.8-1.4-1.7-1.3-5.3-1.3-10.3 0-14.6 0.3-29l1.3-39.2q0.1-6.4 6.6-6.4 4.4 0 6.5 1.7 2 1.7 1.8 5.3l-1.2 12.3q-0.5 4.2-1.2 11.4z"/><path fill-rule="evenodd" class="a" d="m603.6 71.2v186.4c0 3-2.5 5.4-5.5 5.4h-173c-17.3 0-29.9-13.8-29.9-32.8v-197.3c0-17.5 16.5-32.9 35.3-32.9h167.6c2.2 0 4.2 1.3 5 3.4 0.9 2 0.4 4.4-1.1 6-12.2 12.2-12.2 45.8 0 58q0 0 0 0c0.6 0.7 1 1.5 1.3 2.4q0.1 0.4 0.1 0.8c0.1 0.2 0.2 0.4 0.2 0.6zm-11 5.5h-162.1c-9.2 0-17.9-3.7-24.3-9.6v163.1c0 10.9 5.8 21.9 18.9 21.9h167.5zm-151.9 20.3c-2.2-2.1-2.2-5.6 0-7.7 2.1-2.2 5.6-2.2 7.7 0l32.9 32.8c1.1 1.1 1.6 2.5 1.6 3.9 0 12.7 5 24.6 13.9 33.6l1.5 1.4 18.5-16.4c-8.8-12.8-7.6-30.5 3.8-41.8 6.1-6.2 16.1-11.3 26-13.4 12-2.6 22.1-0.6 28.3 5.6 6.2 6.2 8.2 16.3 5.6 28.3-2.1 9.9-7.2 19.9-13.4 26-6.2 6.2-14.4 9.6-23.2 9.6-7.1 0-13.8-2.3-19.4-6.5l-18.4 16.4 63 63c2.1 2.1 2.1 5.6 0 7.7-1.1 1.1-2.5 1.6-3.9 1.6-1.4 0-2.8-0.5-3.9-1.6l-63.4-63.4-71.6 63.6c-1.1 0.9-2.4 1.4-3.7 1.4-1.5 0-3-0.6-4.1-1.8-2-2.3-1.8-5.8 0.5-7.8l71.1-63.2-1-1c-9-8.9-20.9-13.9-33.6-13.9-1.4 0-2.8-0.6-3.9-1.6l-32.9-32.9c-2.1-2.1-2.1-5.6 0-7.7 2.2-2.2 5.7-2.2 7.8 0l31.3 31.3c6.3 0.2 12.3 1.6 18 3.8-2.1-5.7-3.5-11.7-3.8-18zm-34.5-53.2c0 11.5 11.6 21.9 24.4 21.9h157.1c-3.2-6.3-5-14-5.6-21.9h-154c-3 0-5.4-2.4-5.4-5.5 0-3 2.4-5.4 5.4-5.4h154c0.6-7.9 2.4-15.6 5.6-22h-157.1c-12.8 0-24.4 10.5-24.4 22zm122.2 97.6c8.3 8.3 22.7 8.3 31 0 4.7-4.6 8.8-12.6 10.4-20.5 1.8-8.1 0.8-14.8-2.6-18.2-2.4-2.4-6.3-3.4-10.8-3.4-9.4 0-21.5 4.6-28 11.2-8.6 8.5-8.6 22.4 0 30.9z"/></svg>