<?xml version="1.0" encoding="utf-8"?>
<!-- Generator: Adobe Illustrator 22.1.0, SVG Export Plug-In . SVG Version: 6.00 Build 0)  -->
<svg version="1.1" id="illustration" xmlns="http://www.w3.org/2000/svg" xmlns:xlink="http://www.w3.org/1999/xlink" x="0px"
	 y="0px" viewBox="0 0 884 832" style="enable-background:new 0 0 884 832;" xml:space="preserve">
<style type="text/css">
	.st0{opacity:0.2;fill:url(#SVGID_1_);enable-background:new    ;}
	.st1{opacity:0.15;fill:#FFFFFF;enable-background:new    ;}
	.st2{fill:#F2C94C;}
	.st3{opacity:0.2;fill:url(#SVGID_2_);enable-background:new    ;}
	.st4{opacity:0.1;fill:url(#SVGID_3_);enable-background:new    ;}
	.st5{opacity:0.3;fill:url(#SVGID_4_);enable-background:new    ;}
	.st6{opacity:0.4;fill:url(#SVGID_5_);enable-background:new    ;}
	.st7{opacity:0.1;fill:url(#SVGID_6_);enable-background:new    ;}
	.st8{opacity:0.2;fill:url(#SVGID_7_);enable-background:new    ;}
	.st9{opacity:0.2;fill:url(#SVGID_8_);enable-background:new    ;}
	.st10{opacity:0.2;fill:#FFFFFF;enable-background:new    ;}
	.st11{opacity:0.3;fill:url(#SVGID_9_);enable-background:new    ;}
	.st12{fill:#F2994A;}
	.st13{opacity:0.2;fill:url(#SVGID_10_);enable-background:new    ;}
</style>
<linearGradient id="SVGID_1_" gradientUnits="userSpaceOnUse" x1="309.2189" y1="131.7651" x2="261.0811" y2="216.8349" gradientTransform="matrix(1 0 0 1 0 40)">
	<stop  offset="0" style="stop-color:#FFFFFF"/>
	<stop  offset="1" style="stop-color:#FFFFFF;stop-opacity:0"/>
</linearGradient>
<path class="st0" d="M393.4,219.4L177.9,97.5l-1,111.7l215.5,121.9L393.4,219.4z"/>
<path class="st1" d="M232.8,155.6l64.8,36.7l-0.1,13.4L232.7,169L232.8,155.6z"/>
<path class="st1" d="M232.6,182.5l138,78.1l-0.1,13.6l-138-78.1L232.6,182.5z"/>
<path class="st2" d="M221.3,159.7c-0.1,9.2-5.6,13.6-12.4,9.7c-6.8-3.8-12.2-14.4-12.1-23.6c0.1-9.2,5.6-13.6,12.4-9.7
	C216,139.9,221.4,150.5,221.3,159.7z"/>
<linearGradient id="SVGID_2_" gradientUnits="userSpaceOnUse" x1="799.3004" y1="632.1979" x2="751.1812" y2="717.2349" gradientTransform="matrix(1 0 0 1 0 40)">
	<stop  offset="0" style="stop-color:#FFFFFF"/>
	<stop  offset="1" style="stop-color:#FFFFFF;stop-opacity:0"/>
</linearGradient>
<path class="st3" d="M883.4,719.8L668,597.9l-1,111.7l215.5,121.9L883.4,719.8z"/>
<path class="st1" d="M722.9,656l64.8,36.7l-0.1,13.4l-64.8-36.7L722.9,656z"/>
<path class="st1" d="M722.7,682.9l138,78.1l-0.1,13.6l-138-78.1L722.7,682.9z"/>
<path class="st2" d="M711.4,660.1c-0.1,9.2-5.6,13.6-12.4,9.7c-6.8-3.8-12.2-14.4-12.1-23.6c0.1-9.2,5.6-13.6,12.4-9.7
	C706.1,640.3,711.5,650.9,711.4,660.1z"/>
<linearGradient id="SVGID_3_" gradientUnits="userSpaceOnUse" x1="370.3481" y1="16.1261" x2="648.9092" y2="265.4369" gradientTransform="matrix(1 0 0 1 0 40)">
	<stop  offset="0" style="stop-color:#FFFFFF"/>
	<stop  offset="1" style="stop-color:#FFFFFF;stop-opacity:0"/>
</linearGradient>
<path class="st4" d="M632.1,4.7c-40.6,7.9-131.9,18.1-171.7-4.4c0.3,159.2,39.3,385.1,166.8,571.4c129.5-40.9,172-220.6,175-377.9
	C762.4,171.2,672.2,58.3,632.1,4.7z"/>
<linearGradient id="SVGID_4_" gradientUnits="userSpaceOnUse" x1="320.7399" y1="49.1185" x2="599.3008" y2="298.4294" gradientTransform="matrix(1 0 0 1 0 40)">
	<stop  offset="0" style="stop-color:#FFFFFF"/>
	<stop  offset="1" style="stop-color:#FFFFFF;stop-opacity:0"/>
</linearGradient>
<path class="st5" d="M582.5,37.7c-40.6,7.9-131.9,18.1-171.7-4.4c0.3,159.2,39.3,385.1,166.8,571.4c129.5-40.9,172-220.7,175-377.9
	C712.8,204.2,622.6,91.3,582.5,37.7z"/>
<linearGradient id="SVGID_5_" gradientUnits="userSpaceOnUse" x1="767.1457" y1="245.3608" x2="543.6855" y2="288.129" gradientTransform="matrix(1 0 0 1 0 40)">
	<stop  offset="0" style="stop-color:#FFFFFF"/>
	<stop  offset="1" style="stop-color:#FFFFFF;stop-opacity:0"/>
</linearGradient>
<path class="st6" d="M752.7,226.7c-39.9-22.6-130-135.4-170.1-189l-4.9,566.9C707.1,563.8,749.6,384,752.7,226.7z"/>
<linearGradient id="SVGID_6_" gradientUnits="userSpaceOnUse" x1="367.1988" y1="441.8795" x2="577.6648" y2="646.1276" gradientTransform="matrix(1 0 0 1 0 40)">
	<stop  offset="0" style="stop-color:#FFFFFF"/>
	<stop  offset="1" style="stop-color:#FFFFFF;stop-opacity:0"/>
</linearGradient>
<path class="st7" d="M366,338.5L566.7,449l0.1,368.7L366.1,707.3L366,338.5z"/>
<linearGradient id="SVGID_7_" gradientUnits="userSpaceOnUse" x1="418.6861" y1="516.9102" x2="508.8352" y2="709.1492" gradientTransform="matrix(1 0 0 1 0 40)">
	<stop  offset="0" style="stop-color:#FFFFFF"/>
	<stop  offset="1" style="stop-color:#FFFFFF;stop-opacity:0"/>
</linearGradient>
<path class="st8" d="M392,554l151.3,83.3l0.4,132.2l-151.3-83.3L392,554z"/>
<path class="st1" d="M394.7,466l70,38.5v13.6l-70-38.5V466z"/>
<path class="st1" d="M395,493l70,38.5v13.6l-70-38.5V493z"/>
<path class="st1" d="M394.9,519l132.8,73.1v13.6l-132.8-73.1L394.9,519z"/>
<linearGradient id="SVGID_8_" gradientUnits="userSpaceOnUse" x1="434.0685" y1="298.3207" x2="496.8654" y2="467.9388" gradientTransform="matrix(1 0 0 1 0 40)">
	<stop  offset="0" style="stop-color:#FFFFFF"/>
	<stop  offset="1" style="stop-color:#FFFFFF;stop-opacity:0"/>
</linearGradient>
<path class="st9" d="M366,338.5L566.7,449l0.2,63.7L366.1,402.3L366,338.5z"/>
<path class="st10" d="M416.2,398.4c0,9.6-5.7,14.3-12.7,10.4s-12.8-14.8-12.8-24.5c0-9.6,5.7-14.3,12.7-10.4
	C410.5,377.8,416.2,388.8,416.2,398.4z"/>
<path class="st2" d="M485.2,552.8L485,498l136.1,74.9l0.2,54.8L485.2,552.8z"/>
<linearGradient id="SVGID_9_" gradientUnits="userSpaceOnUse" x1="264.904" y1="219.3448" x2="111.253" y2="339.6489" gradientTransform="matrix(1 0 0 1 0 40)">
	<stop  offset="0" style="stop-color:#FFFFFF"/>
	<stop  offset="1" style="stop-color:#FFFFFF;stop-opacity:0"/>
</linearGradient>
<path class="st11" d="M329.8,321.4L32.2,149.7l0.1,155.1l271.3,156.6l26.3,38.9L329.8,321.4z"/>
<path class="st12" d="M0.5,210.1V168l112.3,64.8v42.1L0.5,210.1z"/>
<path class="st1" d="M253.3,315l-65.2-37.6V291l65.2,37.6V315z"/>
<path class="st1" d="M253.3,342.3l-125.7-72.5v13.6l125.7,72.5V342.3z"/>
<path class="st1" d="M253.3,369.5L101,281.6v13.6l152.3,87.9V369.5z"/>
<path class="st12" d="M269.3,338.5c0,12.8,7.6,27.5,16.9,32.9s16.9-0.6,16.9-13.4s-7.6-27.5-16.9-32.9S269.3,325.7,269.3,338.5z"/>
<linearGradient id="SVGID_10_" gradientUnits="userSpaceOnUse" x1="254.8816" y1="480.2121" x2="202.5236" y2="521.5321" gradientTransform="matrix(1 0 0 1 0 40)">
	<stop  offset="0" style="stop-color:#FFFFFF"/>
	<stop  offset="1" style="stop-color:#FFFFFF;stop-opacity:0"/>
</linearGradient>
<path class="st13" d="M234,481.2c6,3.4,10.8,11.8,10.8,18.7v30.5L265,542c6,3.4,10.8,11.8,10.8,18.7s-4.8,9.7-10.8,6.3l-20.2-11.6
	v30.5c0,6.9-4.8,9.7-10.8,6.3s-10.8-11.8-10.8-18.7V543L203,531.3c-6-3.4-10.8-11.8-10.8-18.7c0-6.9,4.8-9.7,10.8-6.3l20.2,11.6
	v-30.5C223.2,480.6,228,477.8,234,481.2z"/>
</svg>
